# xmcd
#
# Track frame offsets:
#	150
#	20791
#	44808
#	64161
#	89915
#	107719
#	131804
#	151433
#	178733
#	200077
#	215743
#	245667
#	270519
#	297236
#	312002
#	331758
#
# Disc length: 4798 seconds
#
# Revision: 0
# Processed by: cddbd v1.5.1PL0 Copyright (c) Steve Scherf et al.
# Submitted via: audiograbber 1.82.02
#
DISCID=0412bc10
DTITLE=Santana - Grand Collection
DYEAR=2003
DGENRE=Latin
TTITLE0=Samba Pa Ti
TTITLE1=Black Magic Woman
TTITLE2=Oye Como Va
TTITLE3=Guajira
TTITLE4=Evil Ways
TTITLE5=Jungle Strut
TTITLE6=Jingo
TTITLE7=Song of The Wind
TTITLE8=Treat
TTITLE9=Everybody's Everything
TTITLE10=Soul Sacrifice
TTITLE11=No One to Depend On
TTITLE12=Toussaint L'overture
TTITLE13=Everything's Coming Our Way
TTITLE14=Mother's Daughter
TTITLE15=Stone Flower
EXTD=
EXTT0=
EXTT1=
EXTT2=
EXTT3=
EXTT4=
EXTT5=
EXTT6=
EXTT7=
EXTT8=
EXTT9=
EXTT10=
EXTT11=
EXTT12=
EXTT13=
EXTT14=
EXTT15=
PLAYORDER=
